# xmcd
# 
# Track frame offsets:
#     180
#     24523
#     46089
#     65635
#     82147
#     100962
#     124803
#     146894
#     167642
#     191073
# 
# Disc length: 2757
# 
# Revision: 9
# Processed by: cddbd v1.5.2PL0 Copyright (c) Steve Scherf et al.
# Submitted via: BonkEnc v1.0.8
# 
DISCID=8f0ac30a
DTITLE=Roberto Carlos - To Chutando Lata
DYEAR=1987
DGENRE=MPB
TTITLE0=T_ Chutando Lata
TTITLE1=Menina
TTITLE2=_guia Dourada
TTITLE3=Coisas Do Cora__o
TTITLE4=Can__o Do Sonho Bom
TTITLE5=O Careta
TTITLE6=Antigamente Era Assim
TTITLE7=Ing_nuo E Sonhador
TTITLE8=Aventuras
TTITLE9=Todo Mundo Est_ Falando
EXTD=
EXTT0=T_ Chutando Lata
EXTT1=Menina
EXTT2=_guia Dourada
EXTT3=Coisas Do Cora__o
EXTT4=Can__o Do Sonho Bom
EXTT5=O Careta
EXTT6=Antigamente Era Assim
EXTT7=Ing_nuo E Sonhador
EXTT8=Aventuras
EXTT9=Todo Mundo Est_ Falando
PLAYORDER=
